<svg height="368pt" viewBox="0 0 368 368" width="368pt" xmlns="http://www.w3.org/2000/svg"><path d="m136 302.640625c14.800781 6.078125 31.039062 9.359375 48 9.359375 70.71875 0 128-57.28125 128-128s-57.28125-128-128-128-128 57.28125-128 128c0 53.761719 33.039062 99.679688 80 118.640625zm0 0" fill="#cce4ff"/><g fill="#007aff"><path d="m184 0c-101.457031 0-184 82.542969-184 184s82.542969 184 184 184 184-82.542969 184-184-82.542969-184-184-184zm0 352c-92.640625 0-168-75.359375-168-168s75.359375-168 168-168 168 75.359375 168 168-75.359375 168-168 168zm0 0"/><path d="m184 48c-74.992188 0-136 61.007812-136 136 0 55.6875 33.328125 105.144531 84.855469 125.992188.015625.007812.03125.015624.046875.023437.019531.007813.035156.015625.050781.023437 16.101563 6.609376 33.269531 9.960938 51.046875 9.960938 74.992188 0 136-61.007812 136-136s-61.007812-136-136-136zm0 256c-13.863281 0-27.265625-2.441406-40-7.007812v-73.871094c10.175781 10.398437 24.335938 16.878906 40 16.878906 30.878906 0 56-25.121094 56-56s-25.121094-56-56-56-56 25.121094-56 56v106.046875c-39.214844-20.589844-64-60.976563-64-106.046875 0-66.167969 53.832031-120 120-120s120 53.832031 120 120-53.832031 120-120 120zm-40-120c0-22.054688 17.945312-40 40-40s40 17.945312 40 40-17.945312 40-40 40-40-17.945312-40-40zm0 0"/></g></svg>